<svg width="24" height="24" viewBox="0 0 24 24" fill="none" xmlns="http://www.w3.org/2000/svg">
<rect width="24" height="24" rx="1" fill="#F3F4F6"/>
<mask id="mask0_4978_624" style="mask-type:alpha" maskUnits="userSpaceOnUse" x="0" y="0" width="24" height="24">
<rect width="24" height="24" fill="#D9D9D9"/>
</mask>
<g mask="url(#mask0_4978_624)">
<path d="M7.97656 16.5004H12.9766C13.1189 16.5004 13.2378 16.4526 13.3333 16.3571C13.4288 16.2616 13.4766 16.1427 13.4766 16.0004C13.4766 15.8581 13.4288 15.7391 13.3333 15.6436C13.2378 15.5481 13.1189 15.5004 12.9766 15.5004H7.97656C7.83425 15.5004 7.71534 15.5481 7.61984 15.6436C7.52432 15.7391 7.47656 15.8581 7.47656 16.0004C7.47656 16.1427 7.52432 16.2616 7.61984 16.3571C7.71534 16.4526 7.83425 16.5004 7.97656 16.5004ZM7.97656 12.5004H15.9766C16.1189 12.5004 16.2378 12.4526 16.3333 12.3571C16.4288 12.2616 16.4766 12.1427 16.4766 12.0004C16.4766 11.8581 16.4288 11.7391 16.3333 11.6436C16.2378 11.5481 16.1189 11.5004 15.9766 11.5004H7.97656C7.83425 11.5004 7.71534 11.5481 7.61984 11.6436C7.52432 11.7391 7.47656 11.8581 7.47656 12.0004C7.47656 12.1427 7.52432 12.2616 7.61984 12.3571C7.71534 12.4526 7.83425 12.5004 7.97656 12.5004ZM7.97656 8.50037H15.9766C16.1189 8.50037 16.2378 8.45261 16.3333 8.35709C16.4288 8.26159 16.4766 8.14268 16.4766 8.00037C16.4766 7.85805 16.4288 7.73914 16.3333 7.64364C16.2378 7.54812 16.1189 7.50037 15.9766 7.50037H7.97656C7.83425 7.50037 7.71534 7.54812 7.61984 7.64364C7.52432 7.73914 7.47656 7.85805 7.47656 8.00037C7.47656 8.14268 7.52432 8.26159 7.61984 8.35709C7.71534 8.45261 7.83425 8.50037 7.97656 8.50037ZM5.59194 20.0004C5.13169 20.0004 4.7474 19.8462 4.43906 19.5379C4.13073 19.2295 3.97656 18.8452 3.97656 18.385V5.61574C3.97656 5.15549 4.13073 4.7712 4.43906 4.46287C4.7474 4.15453 5.13169 4.00037 5.59194 4.00037H18.3612C18.8214 4.00037 19.2057 4.15453 19.5141 4.46287C19.8224 4.7712 19.9766 5.15549 19.9766 5.61574V18.385C19.9766 18.8452 19.8224 19.2295 19.5141 19.5379C19.2057 19.8462 18.8214 20.0004 18.3612 20.0004H5.59194ZM5.59194 19.0004H18.3612C18.515 19.0004 18.656 18.9363 18.7843 18.8081C18.9125 18.6799 18.9766 18.5388 18.9766 18.385V5.61574C18.9766 5.46191 18.9125 5.32088 18.7843 5.19267C18.656 5.06447 18.515 5.00037 18.3612 5.00037H5.59194C5.4381 5.00037 5.29708 5.06447 5.16886 5.19267C5.04066 5.32088 4.97656 5.46191 4.97656 5.61574V18.385C4.97656 18.5388 5.04066 18.6799 5.16886 18.8081C5.29708 18.9363 5.4381 19.0004 5.59194 19.0004Z" fill="#2271B1"/>
</g>
</svg>
