<svg width="24" height="24" viewBox="0 0 24 24" fill="none" xmlns="http://www.w3.org/2000/svg">
<rect width="24" height="24" rx="1" fill="#F3F4F6"/>
<mask id="mask0_4978_628" style="mask-type:alpha" maskUnits="userSpaceOnUse" x="0" y="0" width="24" height="24">
<rect width="24" height="24" fill="#D9D9D9"/>
</mask>
<g mask="url(#mask0_4978_628)">
<path d="M5.59194 20.0004C5.13169 20.0004 4.7474 19.8462 4.43906 19.5379C4.13073 19.2295 3.97656 18.8452 3.97656 18.385V5.61574C3.97656 5.15549 4.13073 4.7712 4.43906 4.46287C4.7474 4.15453 5.13169 4.00037 5.59194 4.00037H10.7073C10.8496 4.00037 10.9685 4.04812 11.0641 4.14364C11.1596 4.23914 11.2073 4.35805 11.2073 4.50037C11.2073 4.64267 11.1596 4.76157 11.0641 4.85709C10.9685 4.95261 10.8496 5.00037 10.7073 5.00037H5.59194C5.4381 5.00037 5.29708 5.06447 5.16886 5.19267C5.04066 5.32088 4.97656 5.46191 4.97656 5.61574V18.385C4.97656 18.5388 5.04066 18.6799 5.16886 18.8081C5.29708 18.9363 5.4381 19.0004 5.59194 19.0004H18.3612C18.515 19.0004 18.656 18.9363 18.7843 18.8081C18.9125 18.6799 18.9766 18.5388 18.9766 18.385V13.2696C18.9766 13.1273 19.0243 13.0084 19.1198 12.9129C19.2154 12.8174 19.3343 12.7696 19.4766 12.7696C19.6189 12.7696 19.7378 12.8174 19.8333 12.9129C19.9288 13.0084 19.9766 13.1273 19.9766 13.2696V18.385C19.9766 18.8452 19.8224 19.2295 19.5141 19.5379C19.2057 19.8462 18.8214 20.0004 18.3612 20.0004H5.59194ZM9.36119 14.6157C9.25477 14.5093 9.20156 14.3914 9.20156 14.2619C9.20156 14.1324 9.25477 14.0145 9.36119 13.9081L18.2689 5.00037H14.4766C14.3343 5.00037 14.2154 4.95261 14.1198 4.85709C14.0243 4.76157 13.9766 4.64267 13.9766 4.50037C13.9766 4.35805 14.0243 4.23914 14.1198 4.14364C14.2154 4.04812 14.3343 4.00037 14.4766 4.00037H19.1689C19.4009 4.00037 19.5936 4.07697 19.7468 4.23017C19.9 4.38337 19.9766 4.57599 19.9766 4.80804V9.50037C19.9766 9.64267 19.9288 9.76158 19.8333 9.85709C19.7378 9.95261 19.6189 10.0004 19.4766 10.0004C19.3343 10.0004 19.2154 9.95261 19.1198 9.85709C19.0243 9.76158 18.9766 9.64267 18.9766 9.50037V5.70807L10.0439 14.6407C9.95028 14.7343 9.84066 14.7811 9.71501 14.7811C9.58938 14.7811 9.47144 14.726 9.36119 14.6157Z" fill="#2271B1"/>
</g>
</svg>
