<svg width="18" height="18" viewBox="0 0 18 18" fill="none" xmlns="http://www.w3.org/2000/svg">
<g clip-path="url(#clip0_1178_2155)">
<path d="M12.1406 5.95062C11.9406 5.81062 11.7106 5.73063 11.4706 5.69063C11.2706 5.65063 11.0806 5.64062 10.8806 5.64062C10.3206 5.64062 9.76062 5.64062 9.20062 5.64062C9.17062 5.64062 9.14063 5.64062 9.10063 5.64062C8.85063 5.66062 8.71062 5.82063 8.66062 6.00063C8.64062 6.06063 8.64063 6.12062 8.64063 6.18062C8.64063 6.54062 8.64063 6.90063 8.64063 7.27063C8.64063 7.62063 8.64063 7.98063 8.64063 8.33063C8.64063 8.38063 8.64062 8.43062 8.65062 8.48062C8.68062 8.72062 8.89062 8.90063 9.11062 8.89063C9.13062 8.89063 9.14062 8.89063 9.16062 8.89063C9.78062 8.89063 10.4106 8.89063 11.0306 8.89063C11.2606 8.89063 11.4906 8.86063 11.7106 8.79063C11.8506 8.75063 11.9806 8.68063 12.1106 8.60063C12.3906 8.41063 12.5806 8.15063 12.6706 7.82063C12.7706 7.44063 12.7706 7.07063 12.6706 6.69063C12.5806 6.39063 12.4006 6.14062 12.1406 5.95062Z" fill="white"/>
<path d="M8.93 0.140625C4 0.140625 0 4.14062 0 9.07062C0 14.0006 4 18.0006 8.93 18.0006C13.86 18.0006 17.86 14.0006 17.86 9.07062C17.86 4.14062 13.86 0.140625 8.93 0.140625ZM4.73 6.69063C4.83 6.71063 4.91 6.80063 4.93 6.90063C4.94 7.02063 4.89 7.14063 4.8 7.19063C4.76 7.21063 4.72 7.22062 4.67 7.22062C4.57 7.22062 4.47 7.22062 4.37 7.22062C4.27 7.22062 4.17 7.22062 4.07 7.22062C3.93 7.22062 3.83 7.12063 3.82 6.98063C3.81 6.83063 3.9 6.71063 4.04 6.69063C4.06 6.69063 4.09 6.68062 4.11 6.68062C4.29 6.68062 4.47 6.68062 4.65 6.68062C4.68 6.68062 4.7 6.68063 4.73 6.69063ZM3.09 4.64062C3.12 4.57062 3.18 4.53063 3.25 4.51063C3.29 4.50063 3.33 4.50063 3.37 4.50063C3.65 4.50063 3.93 4.50063 4.2 4.50063C4.22 4.50063 4.24 4.50063 4.26 4.50063C4.39 4.51063 4.47 4.58062 4.5 4.70062C4.53 4.83062 4.49 4.95063 4.39 5.02063C4.35 5.04063 4.31 5.05063 4.26 5.05063C4.15 5.05063 4.05 5.05063 3.94 5.05063C3.88 5.05063 3.83 5.05063 3.77 5.05063C3.62 5.05063 3.48 5.04063 3.33 5.05063C3.09 5.06063 3 4.81063 3.09 4.64062ZM2.8 9.13062C2.79 8.95062 2.89 8.83062 3.07 8.82062C3.1 8.82062 3.13 8.82062 3.15 8.82062C3.78 8.82062 4.41 8.82062 5.05 8.82062C5.09 8.82062 5.13 8.82062 5.17 8.82062C5.3 8.84062 5.39 8.95062 5.4 9.07062C5.41 9.20062 5.34 9.32063 5.22 9.35063C5.18 9.36063 5.14 9.36062 5.09 9.36062C4.76 9.36062 4.43 9.36062 4.1 9.36062C3.78 9.36062 3.46 9.36062 3.13 9.36062C3.1 9.36062 3.07 9.36062 3.03 9.36062C2.9 9.37062 2.81 9.23062 2.8 9.13062ZM5.3 6.86063C5.33 6.76063 5.4 6.70063 5.5 6.69063C5.6 6.68063 5.71 6.68063 5.81 6.69063C5.92 6.70063 6 6.79062 6.02 6.91062C6.04 7.01062 5.98 7.14063 5.9 7.19063C5.85 7.21063 5.81 7.22062 5.77 7.22062C5.73 7.22062 5.69 7.22062 5.65 7.22062C5.61 7.22062 5.58 7.22062 5.54 7.22062C5.38 7.23062 5.23 7.05063 5.3 6.86063ZM4.66 10.2506C4.66 10.4006 4.55 10.5106 4.4 10.5206C4.3 10.5206 4.21 10.5206 4.11 10.5206C4.01 10.5206 3.91 10.5206 3.81 10.5206C3.69 10.5206 3.6 10.4606 3.56 10.3506C3.52 10.2406 3.54 10.1406 3.62 10.0506C3.68 10.0006 3.73 9.98062 3.79 9.98062C3.9 9.98062 4 9.98062 4.11 9.98062C4.21 9.98062 4.3 9.98062 4.4 9.98062C4.55 9.99062 4.66 10.1006 4.66 10.2506ZM2.89 11.3606C2.88 11.2006 2.97 11.0906 3.13 11.0806C3.17 11.0806 3.2 11.0806 3.24 11.0806C3.7 11.0806 4.15 11.0806 4.61 11.0806C4.66 11.0806 4.71 11.0806 4.76 11.0906C4.83 11.1006 4.88 11.1406 4.91 11.1906C4.97 11.2906 4.96 11.4406 4.89 11.5306C4.85 11.5806 4.81 11.6106 4.75 11.6106C4.71 11.6106 4.66 11.6206 4.62 11.6206C4.39 11.6206 4.15 11.6206 3.92 11.6206C3.69 11.6206 3.47 11.6206 3.24 11.6206C3.21 11.6206 3.18 11.6206 3.14 11.6206C2.98 11.6206 2.9 11.5106 2.89 11.3606ZM4.04 13.7606C4 13.7906 3.95 13.8106 3.9 13.8106C3.81 13.8106 3.72 13.8106 3.63 13.8106C3.54 13.8106 3.46 13.8106 3.37 13.8106C3.21 13.8106 3.12 13.6806 3.12 13.5606C3.12 13.5006 3.12 13.4506 3.15 13.4006C3.19 13.3306 3.24 13.2806 3.33 13.2706C3.35 13.2706 3.38 13.2606 3.4 13.2606C3.56 13.2606 3.72 13.2606 3.88 13.2606C3.94 13.2606 3.99 13.2606 4.04 13.3006C4.17 13.4106 4.18 13.6506 4.04 13.7606ZM13.12 11.1306C13.19 11.2506 13.27 11.3706 13.34 11.5006C13.84 12.3106 14.35 13.1206 14.85 13.9306C14.92 14.0506 14.97 14.1706 14.95 14.3106C14.92 14.5506 14.74 14.7306 14.5 14.7306C14.47 14.7306 14.44 14.7306 14.4 14.7306C13.93 14.7306 13.47 14.7306 13 14.7306C12.98 14.7306 12.95 14.7306 12.93 14.7306C12.76 14.7306 12.63 14.6606 12.54 14.5206C12.45 14.3806 12.36 14.2406 12.28 14.0906C11.72 13.1806 11.16 12.2806 10.6 11.3706C10.57 11.3306 10.54 11.2806 10.51 11.2506C10.44 11.1806 10.36 11.1306 10.26 11.1206C10.23 11.1206 10.2 11.1106 10.16 11.1106C9.81 11.1106 9.47 11.1106 9.12 11.1106C8.86 11.1106 8.7 11.2706 8.65 11.4506C8.64 11.4906 8.63 11.5406 8.63 11.5806C8.63 11.6306 8.63 11.6806 8.63 11.7206C8.63 12.5306 8.63 13.3406 8.63 14.1606C8.63 14.2206 8.63 14.2906 8.62 14.3506C8.58 14.5706 8.42 14.7106 8.2 14.7306C8.17 14.7306 8.14 14.7306 8.1 14.7306C7.48 14.7306 6.85 14.7306 6.23 14.7306C6.19 14.7306 6.14 14.7406 6.1 14.7106C6.07 14.5306 6.17 14.4006 6.34 14.3906C6.44 14.3906 6.54 14.3906 6.64 14.3906C6.68 14.3906 6.73 14.3906 6.77 14.3906C6.94 14.3806 7.05 14.2506 7.03 14.0706C7.01 13.9206 6.91 13.8306 6.76 13.8306C6.73 13.8306 6.7 13.8306 6.66 13.8306C6.08 13.8306 5.51 13.8306 4.93 13.8306C4.89 13.8306 4.85 13.8306 4.81 13.8306C4.74 13.8306 4.68 13.8006 4.64 13.7406C4.57 13.6406 4.57 13.5406 4.61 13.4306C4.66 13.3306 4.74 13.2906 4.85 13.2906C4.88 13.2906 4.91 13.2906 4.93 13.2906C5.37 13.2906 5.81 13.2906 6.24 13.2906C6.28 13.2906 6.31 13.2906 6.35 13.2906C6.46 13.2906 6.53 13.2306 6.57 13.1306C6.6 13.0506 6.6 12.9706 6.57 12.9006C6.53 12.7906 6.44 12.7406 6.32 12.7306C6.18 12.7306 6.05 12.7306 5.91 12.7306C5.88 12.7306 5.85 12.7306 5.81 12.7306C5.69 12.7206 5.61 12.6406 5.59 12.5306C5.58 12.4906 5.58 12.4506 5.59 12.4106C5.61 12.2806 5.7 12.1906 5.83 12.1906C5.86 12.1906 5.89 12.1906 5.91 12.1906C6.09 12.1906 6.27 12.1906 6.45 12.1906C6.48 12.1906 6.51 12.1906 6.53 12.1906C6.64 12.1906 6.73 12.1406 6.78 12.0406C6.83 11.9306 6.8 11.7806 6.72 11.7106C6.68 11.6706 6.64 11.6506 6.58 11.6506C6.54 11.6506 6.5 11.6506 6.46 11.6506C6.15 11.6506 5.84 11.6506 5.53 11.6506C5.5 11.6506 5.47 11.6506 5.45 11.6506C5.41 11.6406 5.37 11.6406 5.33 11.6306C5.22 11.5906 5.17 11.4706 5.18 11.3306C5.19 11.2106 5.28 11.1206 5.39 11.1106C5.43 11.1106 5.46 11.1106 5.5 11.1106C5.93 11.1106 6.37 11.1106 6.8 11.1106C6.85 11.1106 6.9 11.1106 6.94 11.1006C7.03 11.0806 7.09 11.0206 7.12 10.9206C7.14 10.8506 7.14 10.7806 7.11 10.7106C7.07 10.6206 7.01 10.5606 6.9 10.5606C6.86 10.5606 6.82 10.5606 6.78 10.5606C6.29 10.5606 5.81 10.5606 5.32 10.5606C5.29 10.5606 5.26 10.5606 5.22 10.5606C5.08 10.5606 4.96 10.4606 4.96 10.2806C4.96 10.2406 4.97 10.2106 4.98 10.1806C5.02 10.0906 5.08 10.0306 5.19 10.0306C5.23 10.0306 5.27 10.0306 5.31 10.0306C5.8 10.0306 6.28 10.0306 6.77 10.0306C6.81 10.0306 6.84 10.0306 6.88 10.0306C7 10.0206 7.08 9.95062 7.12 9.83062C7.18 9.70062 7.17 9.63063 7.14 9.56063C7.1 9.49063 7.05 9.44062 6.96 9.43062C6.92 9.43062 6.88 9.42062 6.84 9.42062C6.66 9.42062 6.49 9.42062 6.31 9.42062C6.28 9.42062 6.25 9.42062 6.21 9.42062C6.06 9.43062 5.97 9.30062 5.97 9.15062C5.96 9.00062 6.06 8.90062 6.22 8.89062C6.29 8.89062 6.36 8.89062 6.42 8.89062C6.55 8.89062 6.63 8.80062 6.66 8.70062C6.7 8.56062 6.64 8.42062 6.51 8.36062C6.47 8.34062 6.43 8.34062 6.39 8.34062C6.2 8.34062 6.01 8.34062 5.82 8.34062C5.79 8.34062 5.76 8.34062 5.72 8.34062C5.66 8.33062 5.61 8.30062 5.56 8.25062C5.46 8.13062 5.48 7.87063 5.66 7.81063C5.69 7.80063 5.72 7.80063 5.74 7.79063C5.77 7.79063 5.8 7.79063 5.84 7.79063C6.34 7.79063 6.84 7.79063 7.34 7.79063C7.38 7.79063 7.41 7.79063 7.45 7.79063C7.53 7.78063 7.59 7.75062 7.63 7.68062C7.7 7.58062 7.69 7.42063 7.62 7.32063C7.58 7.27063 7.52 7.24063 7.46 7.23063C7.42 7.23063 7.39 7.23063 7.35 7.23063C7.08 7.23063 6.82 7.23063 6.55 7.23063C6.51 7.23063 6.47 7.23062 6.43 7.22062C6.34 7.21062 6.29 7.16063 6.26 7.09063C6.22 7.00063 6.22 6.92063 6.26 6.83063C6.3 6.74063 6.37 6.70063 6.47 6.69063C6.53 6.69063 6.59 6.69063 6.65 6.69063C6.7 6.69063 6.75 6.68063 6.79 6.67063C6.83 6.66063 6.86 6.63063 6.89 6.60063C6.98 6.49063 6.97 6.30062 6.88 6.20062C6.83 6.17062 6.79 6.15062 6.74 6.14062C6.71 6.14062 6.68 6.14062 6.64 6.14062C6.34 6.14062 6.04 6.14062 5.73 6.14062C5.7 6.14062 5.67 6.14062 5.63 6.14062C5.58 6.13063 5.52 6.10063 5.48 6.04063C5.41 5.95063 5.41 5.80063 5.47 5.71063C5.51 5.65063 5.57 5.61063 5.65 5.60063C5.68 5.60063 5.71 5.60063 5.75 5.60063C5.98 5.60063 6.22 5.59063 6.45 5.60063C6.61 5.61063 6.74 5.43063 6.71 5.29063C6.69 5.16063 6.58 5.04063 6.43 5.05063C5.98 5.06063 5.54 5.05063 5.09 5.05063C5.05 5.05063 5.01 5.05063 4.97 5.05063C4.85 5.05063 4.77 4.97063 4.75 4.88063C4.72 4.79063 4.73 4.71063 4.77 4.63063C4.8 4.57063 4.86 4.53063 4.93 4.51063C4.98 4.50063 5.02 4.50063 5.07 4.50063C5.7 4.50063 6.34 4.50063 6.97 4.50063C7.01 4.50063 7.06 4.50063 7.1 4.50063C7.19 4.49063 7.26 4.44063 7.29 4.36063C7.33 4.26063 7.33 4.17063 7.28 4.07063C7.25 4.00063 7.18 3.96062 7.09 3.95062C7.06 3.95062 7.03 3.95062 6.99 3.95062C6.46 3.95062 5.94 3.95062 5.41 3.95062C5.37 3.95062 5.33 3.95062 5.29 3.95062C5.19 3.95062 5.1 3.89062 5.07 3.77062C5.05 3.71062 5.05 3.65062 5.07 3.59062C5.11 3.48062 5.2 3.42062 5.31 3.41062C5.34 3.41062 5.37 3.41062 5.39 3.41062C7.31 3.41062 9.23 3.41062 11.16 3.41062C11.46 3.41062 11.75 3.43062 12.04 3.48062C12.47 3.55062 12.88 3.67062 13.27 3.87062C13.96 4.23062 14.46 4.76063 14.76 5.48063C14.91 5.83063 14.99 6.20063 15.03 6.58063C15.05 6.75063 15.06 6.93063 15.06 7.10063C15.07 7.75063 14.97 8.38062 14.69 8.98062C14.44 9.49062 14.08 9.91062 13.62 10.2406C13.53 10.3006 13.43 10.3606 13.34 10.4206C13.3 10.4506 13.25 10.4806 13.21 10.5106C13.04 10.6706 13 10.9206 13.12 11.1306Z" fill="white"/>
</g>
<defs>
<clipPath id="clip0_1178_2155">
<rect width="18" height="18" fill="white"/>
</clipPath>
</defs>
</svg>
