<svg width="311" height="268" viewBox="0 0 311 268" fill="none" xmlns="http://www.w3.org/2000/svg">
<rect x="0.5" y="0.5" width="310" height="267" fill="#F9F9F9" stroke="#EEEEEE"/>
<rect width="231" height="168" transform="translate(40 54)" fill="#7C29C4" fill-opacity="0.14"/>
<path d="M168.5 148.111V127.889C168.5 126.3 167.2 125 165.611 125H145.389C143.8 125 142.5 126.3 142.5 127.889V148.111C142.5 149.7 143.8 151 145.389 151H165.611C167.2 151 168.5 149.7 168.5 148.111ZM150.444 140.167L154.056 144.514L159.111 138L165.611 146.667H145.389L150.444 140.167Z" fill="#7C29C4" fill-opacity="0.2"/>
<circle cx="89" cy="180" r="7" fill="#7C29C4" fill-opacity="0.3"/>
<circle cx="135" cy="98" r="7" fill="#7C29C4" fill-opacity="0.3"/>
<circle cx="220" cy="153" r="7" fill="#7C29C4" fill-opacity="0.3"/>
<g filter="url(#filter0_d_2597_2734)">
<rect x="94" y="40" width="83" height="42" rx="6" fill="#CDAFE7"/>
<rect x="105" y="46" width="40" height="10" fill="#7C29C4" fill-opacity="0.3"/>
<rect x="105" y="66" width="61" height="4" fill="#E7DCF1"/>
<rect x="105" y="72" width="29" height="4" fill="#E7DCF1"/>
<path fill-rule="evenodd" clip-rule="evenodd" d="M130.5 80C130.302 80 130.109 80.0587 129.945 80.1686C129.78 80.2785 129.652 80.4346 129.576 80.6173C129.501 80.8 129.481 81.0011 129.519 81.195C129.558 81.389 129.653 81.5671 129.793 81.707L134.793 86.707C134.981 86.8945 135.235 86.9998 135.5 86.9998C135.765 86.9998 136.02 86.8945 136.207 86.707L141.207 81.707C141.347 81.5671 141.442 81.389 141.481 81.195C141.519 81.0011 141.499 80.8 141.424 80.6173C141.348 80.4346 141.22 80.2785 141.055 80.1686C140.891 80.0587 140.698 80 140.5 80H130.5Z" fill="#CDAFE7"/>
</g>
<defs>
<filter id="filter0_d_2597_2734" x="86" y="36" width="99" height="62.9998" filterUnits="userSpaceOnUse" color-interpolation-filters="sRGB">
<feFlood flood-opacity="0" result="BackgroundImageFix"/>
<feColorMatrix in="SourceAlpha" type="matrix" values="0 0 0 0 0 0 0 0 0 0 0 0 0 0 0 0 0 0 127 0" result="hardAlpha"/>
<feOffset dy="4"/>
<feGaussianBlur stdDeviation="4"/>
<feComposite in2="hardAlpha" operator="out"/>
<feColorMatrix type="matrix" values="0 0 0 0 0 0 0 0 0 0 0 0 0 0 0 0 0 0 0.12 0"/>
<feBlend mode="normal" in2="BackgroundImageFix" result="effect1_dropShadow_2597_2734"/>
<feBlend mode="normal" in="SourceGraphic" in2="effect1_dropShadow_2597_2734" result="shape"/>
</filter>
</defs>
</svg>
